<?xml version="1.0" encoding="utf-8"?>
<!-- Generator: Adobe Illustrator 15.0.0, SVG Export Plug-In . SVG Version: 6.00 Build 0)  -->
<!DOCTYPE svg PUBLIC "-//W3C//DTD SVG 1.1//EN" "http://www.w3.org/Graphics/SVG/1.1/DTD/svg11.dtd">
<svg version="1.1" id="Ebene_1" xmlns="http://www.w3.org/2000/svg" xmlns:xlink="http://www.w3.org/1999/xlink" x="0px" y="0px"
	 width="558px" height="558px" viewBox="0 0 558 558" enable-background="new 0 0 558 558" xml:space="preserve">
<g>
	<path fill="#DD715B" d="M280.98,526.34c-65.624,0-127.317-25.554-173.717-71.952C60.857,407.98,35.3,346.283,35.3,280.66
		s25.557-127.32,71.963-173.727c46.4-46.4,108.094-71.953,173.717-71.953c30.879,0,56,25.122,56,56s-25.121,56-56,56
		c-73.712,0-133.681,59.969-133.681,133.68c0,73.711,59.969,133.68,133.681,133.68c73.717,0,133.689-59.969,133.689-133.68
		c0-24.345-6.47-47.804-18.793-68.418l-47.123,49.136c-1.546,1.612-3.646,2.462-5.776,2.463c-1.237,0-2.484-0.287-3.64-0.878
		c-3.145-1.608-4.862-5.089-4.227-8.563l27.369-149.51c0.577-3.151,2.977-5.654,6.101-6.362l148.24-33.6
		c0.59-0.133,1.184-0.198,1.771-0.198c2.837,0,5.521,1.515,6.962,4.063c1.738,3.075,1.255,6.925-1.19,9.475l-49.439,51.553
		c33.421,42.915,51.746,96.193,51.746,150.84c0,65.613-25.557,127.311-71.963,173.727C408.308,500.786,346.61,526.34,280.98,526.34z
		"/>
	<path fill="#FFFFFF" d="M280.98,42.98c26.51,0,48,21.49,48,48c0,26.51-21.49,48-48,48c-78.121,0-141.681,63.56-141.681,141.68
		s63.56,141.68,141.681,141.68c78.13,0,141.689-63.56,141.689-141.68c0-29.36-8.97-57.57-25.58-81.24l-54.109,56.42l27.369-149.51
		l148.24-33.6l-54.3,56.62c35.17,42.52,54.38,95.68,54.38,151.31c0,63.49-24.729,123.17-69.62,168.07
		c-44.89,44.89-104.58,69.609-168.069,69.609c-63.48,0-123.17-24.72-168.061-69.609c-44.9-44.9-69.62-104.58-69.62-168.07
		s24.72-123.17,69.62-168.07C157.81,67.7,217.5,42.98,280.98,42.98 M280.98,26.98c-67.76,0-131.463,26.386-179.374,74.296
		C53.689,149.194,27.3,212.9,27.3,280.66s26.389,131.466,74.306,179.384c47.911,47.91,111.614,74.296,179.375,74.296
		c67.767,0,131.473-26.386,179.383-74.296c47.918-47.928,74.307-111.634,74.307-179.384c0-29.502-5.028-58.433-14.946-85.99
		c-8.283-23.014-19.795-44.567-34.297-64.244l44.711-46.622c4.89-5.099,5.856-12.8,2.38-18.95
		c-2.881-5.096-8.249-8.126-13.925-8.126c-1.173,0-2.359,0.129-3.54,0.397l-148.24,33.6c-6.247,1.416-11.048,6.422-12.201,12.723
		l-27.369,149.509c-1.272,6.949,2.163,13.91,8.452,17.126c2.311,1.182,4.807,1.755,7.281,1.755c4.261,0,8.459-1.7,11.553-4.926
		l39.539-41.228c8.286,16.996,12.603,35.688,12.603,54.973c0,69.3-56.384,125.68-125.689,125.68
		c-69.301,0-125.681-56.38-125.681-125.68c0-69.3,56.38-125.68,125.681-125.68c35.29,0,64-28.71,64-64S316.271,26.98,280.98,26.98
		L280.98,26.98z"/>
</g>
<g>
	<g>
		<path d="M341.03,367.644l1.282-2.607c1.053-2.139,2.061-4.327,3.127-6.644c5.276-11.463,12.504-27.163,39.386-69.474
			c13.008-20.479,35.153-33.711,56.417-33.711c14.025,0,25.021,5.894,30.165,16.17c7.708,15.396,1.181,38.271-18.38,64.406
			c-15.613,20.864-33.373,31.145-40.957,35.534c-7.577,4.402-20.258,17.595-26.496,25.425l-2.116,2.656L341.03,367.644z"/>
		<path fill="#FFFFFF" d="M441.242,258.708c27.813-0.002,46.028,25.48,8.983,74.979c-14.911,19.925-31.542,29.759-39.908,34.602
			c-8.365,4.859-21.381,18.617-27.48,26.273l-37.384-27.98c6.152-12.5,9.92-24.78,42.326-75.786
			C401.449,269.275,423.336,258.709,441.242,258.708 M441.246,252h-0.004c-22.434,0-45.738,13.726-59.372,35.189
			c-27.008,42.508-34.292,58.259-39.61,69.813c-1.057,2.295-2.055,4.426-3.087,6.524l-2.566,5.195l4.652,3.473l37.384,27.977
			l5.438,4.066l4.231-5.313c6.066-7.614,18.311-20.393,25.521-24.582c7.761-4.491,25.954-15.024,41.997-36.461
			c10.454-13.969,17.313-26.98,20.384-38.671c2.978-11.338,2.413-21.083-1.678-29.255C468.777,258.452,456.644,252,441.246,252
			L441.246,252z"/>
	</g>
	<g>
		<path d="M334.674,452.317c-11.293,0-21.462-6.299-26.538-16.438c-5.635-11.257-3.772-24.52,5.111-36.389
			c11.339-15.155,17.588-20.705,20.945-23.687c0.877-0.779,1.569-1.394,2.043-1.906l2.142-2.316l42.205,31.589l-1.358,2.633
			c-0.863,1.672-1.048,2.787-1.303,4.331c-0.689,4.168-1.547,9.355-13.315,25.083C356.352,446.244,345.723,452.317,334.674,452.317z
			"/>
		<path fill="#FFFFFF" d="M338.806,376.273l37.308,27.924c-3.64,7.052,1.926,7.226-14.311,28.923
			c-8.335,11.137-18.183,15.697-27.129,15.697c-20.434,0-36.187-23.766-18.625-47.229
			C330.335,382.492,336.135,379.162,338.806,376.273 M337.949,366.889l-4.283,4.633c-0.356,0.386-0.992,0.95-1.798,1.665
			c-3.45,3.063-9.872,8.767-21.425,24.208c-9.705,12.968-11.688,27.566-5.437,40.052c5.673,11.332,17.04,18.371,29.667,18.371
			c12.179,0,23.803-6.571,32.733-18.503c11.356-15.177,13.044-21.03,13.967-26.609c0.24-1.452,0.35-2.115,0.96-3.297l2.717-5.265
			l-4.743-3.551L343,370.669L337.949,366.889L337.949,366.889z"/>
	</g>
</g>
<g>
	<g>
		<path d="M345.369,550c-4.658,0-9.376-0.678-14.022-1.529c-49.052-8.996-65.265-14.453-77.103-18.348
			c-2.467-0.812-4.797-1.639-7.137-2.337l-2.784-0.861l5.542-52.725l3.388,0.246c2.935,0.221,6.624,0.338,10.386,0.338
			c10.95,0,20.591-0.957,25.788-2.556c7.551-2.322,21.549-6.629,40.264-6.629c4.343,0,8.767,0.232,13.146,0.693
			c20.871,2.197,36.852,7.242,47.5,14.998c12.327,8.979,14.473,19.528,14.102,26.591C403.375,528.105,379.389,550,345.378,550
			C345.373,550,345.373,550,345.369,550z"/>
		<path fill="#FFFFFF" d="M329.689,469.099c4.03,0.001,8.297,0.204,12.781,0.675c93.883,9.88,59.562,76.237,2.898,76.237
			c-4.346,0-8.83-0.391-13.391-1.228c-59.443-10.901-70.523-16.431-83.871-20.412l4.882-46.442c2.927,0.22,6.637,0.352,10.648,0.352
			c9.357,0,20.347-0.718,26.817-2.708C298.021,473.245,311.477,469.099,329.689,469.099 M329.689,462.099L329.689,462.099
			c-19.239,0-33.564,4.406-41.26,6.773c-4.843,1.489-14.33,2.408-24.792,2.408c-3.678,0-7.273-0.118-10.124-0.332l-6.775-0.509
			l-0.71,6.758l-4.882,46.442l-0.608,5.778l5.568,1.661c2.292,0.684,4.494,1.408,7.043,2.247
			c11.934,3.926,28.278,9.304,77.566,18.342c4.856,0.892,9.787,1.343,14.653,1.343c15.829,0,31.088-4.75,42.965-13.375
			c11.846-8.603,18.989-20.199,19.599-31.819c0.588-11.205-4.93-21.631-15.537-29.355c-11.152-8.122-27.703-13.388-49.192-15.649
			C338.701,462.339,334.155,462.1,329.689,462.099L329.689,462.099z"/>
	</g>
	<g>
		<path d="M222.973,526.887c-5.91,0-13.023-0.434-21.142-1.288c-23.148-2.438-32.884-18.904-32.135-33.171
			c0.736-14.024,11.945-29.119,34.815-29.119c1.873,0,3.818,0.104,5.782,0.312c19.564,2.057,24.138,4.97,27.813,7.312
			c1.372,0.873,2.363,1.505,4.186,2.012l2.853,0.794l-5.509,52.411l-3.147,0.004c-0.696,0.001-1.618,0.089-2.785,0.2
			C231.333,526.578,228.086,526.887,222.973,526.887C222.974,526.887,222.974,526.887,222.973,526.887z"/>
		<path fill="#FFFFFF" d="M204.512,466.809c1.734,0,3.541,0.095,5.416,0.292c26.944,2.833,23.786,7.089,31.427,9.215l-4.871,46.337
			c-2.408,0.003-5.816,0.734-13.511,0.734c-4.902,0-11.545-0.297-20.775-1.269C162.021,517.887,164.221,466.809,204.512,466.809
			 M204.512,459.809c-25.151,0-37.49,16.813-38.31,32.436c-0.463,8.813,2.521,17.329,8.404,23.978
			c6.401,7.235,15.689,11.682,26.859,12.858c8.356,0.879,15.392,1.307,21.509,1.307c5.279,0,8.759-0.331,11.062-0.551
			c1.076-0.102,1.926-0.183,2.458-0.184l6.295-0.008l0.658-6.261l4.871-46.337l0.619-5.889l-5.704-1.587
			c-1.32-0.367-1.963-0.776-3.244-1.592c-4.894-3.117-10.478-5.858-29.328-7.841C208.575,459.92,206.506,459.809,204.512,459.809
			L204.512,459.809z"/>
	</g>
</g>
<g>
	<g>
		<path d="M139.349,392.966c-8.126,0-15.333-3.254-20.842-9.41c-10.229-11.432-14.006-32.099-10.925-59.769
			c2.882-25.884,12.98-43.758,17.292-51.391c4.304-7.631,8.546-25.431,9.954-35.345l0.478-3.363l52.673,5.869l0.215,2.897
			c0.177,2.379,0.417,4.777,0.673,7.315c1.261,12.557,2.988,29.753,1.262,79.846C188.847,366.949,162.338,392.966,139.349,392.966z"
			/>
		<path fill="#FFFFFF" d="M138.293,237.543l46.41,5.171c1.032,13.895,4.008,26.388,1.927,86.782
			c-1.2,34.952-26.174,59.97-47.282,59.97c-18.182,0-33.494-18.549-28.288-65.291c2.754-24.732,12.105-41.639,16.861-50.057
			C132.672,265.693,136.917,247.235,138.293,237.543 M132.317,229.834l-0.955,6.725c-1.369,9.641-5.445,26.861-9.538,34.12
			c-4.415,7.814-14.759,26.125-17.721,52.721c-3.195,28.687,0.884,50.295,11.795,62.488c6.192,6.92,14.301,10.577,23.45,10.577
			c24.589,0,52.927-27.404,54.278-66.729c1.734-50.328-0.007-67.66-1.278-80.316c-0.253-2.516-0.491-4.892-0.665-7.225l-0.431-5.795
			l-5.775-0.644l-46.411-5.171L132.317,229.834L132.317,229.834z"/>
	</g>
	<g>
		<path d="M135.873,228.98l-0.163-2.958c-0.104-1.879-0.51-2.934-1.072-4.394c-1.518-3.943-3.407-8.85-1.233-28.374
			c2.616-23.479,18.014-33.988,32.114-33.988c8.477,0,16.584,3.627,22.242,9.95c6.441,7.199,9.292,17.429,8.024,28.806
			c-2.092,18.808-4.667,26.761-6.049,31.034c-0.361,1.117-0.647,1.999-0.795,2.681l-0.672,3.083L135.873,228.98z"/>
		<path fill="#FFFFFF" d="M165.519,162.766c14.819-0.002,29.273,12.555,26.788,34.868c-2.637,23.701-5.949,29.514-6.786,33.358
			l-46.315-5.162c-0.436-7.923-5.32-5.253-2.321-32.189C139.247,172.429,152.523,162.768,165.519,162.766 M165.523,155.883
			L165.522,156h-0.004c-15.659,0-32.736,11.358-35.591,36.983c-2.098,18.84-0.586,24.683,1.446,29.96
			c0.529,1.374,0.77,1.972,0.843,3.3l0.325,5.902l5.889,0.649l46.315,5.158l6.271,0.697l1.343-6.167
			c0.112-0.514,0.374-1.324,0.706-2.349c1.421-4.391,4.066-12.565,6.198-31.726c1.379-12.378-1.78-23.517-8.895-31.468
			C184.048,159.875,174.992,155.883,165.523,155.883L165.523,155.883z"/>
	</g>
</g>
<g>
	<g>
		<path d="M49.377,184c-16.6,0-28.395-8.846-31.55-23.441c-4.535-20.979,9.45-51.215,40.703-65.395
			c45.408-20.604,61.767-25.509,73.711-29.068c2.491-0.742,4.843-1.459,7.163-2.222l2.76-0.915l25.528,46.442l-2.926,1.723
			c-8.117,4.784-22.771,15.231-28.444,22.461c-5.874,7.49-18.062,23.163-40.471,35.482C77.979,178.89,62.344,184,49.382,184
			C49.38,184,49.379,184,49.377,184z"/>
		<path fill="#FFFFFF" d="M140.498,67.184l22.492,40.923c-8.428,4.967-23.448,15.706-29.42,23.316
			c-5.964,7.606-17.601,22.46-39.404,34.447c-18.534,10.186-33.397,14.37-44.789,14.37c-43.355,0-36.347-60.655,10.599-81.953
			C115.009,73.315,127.264,71.533,140.498,67.184 M143.833,58.72l-5.521,1.814c-2.273,0.747-4.496,1.409-7.069,2.176
			c-12.042,3.587-28.532,8.5-74.159,29.203c-32.864,14.91-47.507,46.923-42.677,69.26c3.529,16.323,16.603,26.068,34.97,26.068
			c13.561,0,29.765-5.126,48.16-15.235c23.037-12.665,35.523-28.588,41.524-36.24c5.176-6.597,19.283-16.794,27.483-21.627
			l5.852-3.449l-3.272-5.953l-22.492-40.923L143.833,58.72L143.833,58.72z"/>
	</g>
	<g>
		<path d="M146.437,60.89l2.584-1.799c0.572-0.398,1.281-0.998,2.178-1.757c3.479-2.943,9.955-8.421,26.596-17.565
			c6.441-3.54,12.939-5.334,19.313-5.334c13.985,0,26.127,9.249,29.527,22.491c2.974,11.584-0.828,27.799-20.417,38.566
			c-17.239,9.475-22.658,9.693-27.012,9.869c-1.626,0.066-2.8,0.113-4.587,0.738l-2.795,0.977L146.437,60.89z"/>
		<path fill="#FFFFFF" d="M197.109,37.934c26.85,0,40.716,36.19,7.424,54.49c-23.744,13.05-23.579,7.753-31.067,10.37
			l-22.445-40.832c3.236-2.253,7.56-7.643,28.46-19.127C185.702,39.417,191.669,37.934,197.109,37.934 M197.109,30.934
			c-6.97,0-14.035,1.94-20.999,5.767c-16.948,9.313-23.599,14.938-27.171,17.961c-0.827,0.7-1.48,1.252-1.917,1.557l-5.167,3.598
			l3.033,5.519l22.445,40.832l2.853,5.189l5.591-1.953c1.294-0.453,2.056-0.483,3.574-0.544c5.797-0.234,11.947-1.171,28.556-10.3
			c21.343-11.732,25.421-29.648,22.121-42.503C226.229,41.264,212.693,30.934,197.109,30.934L197.109,30.934z"/>
	</g>
</g>
</svg>
